# xmcd CD database file
#
# Track frame offsets:
#	150
#	18107
#	32050
#	49245
#	71152
#	86932
#	110185
#	129947
#	145275
#	163012
#	181832
#	204525
#	223605
#	244157
#	262217
#	281305
#	294412
#	309287
#
# Disc length: 4381 seconds
#
# Revision: 2
# Processed by: cddbd v1.5.2PL0 Copyright (c) Steve Scherf et al.
# Submitted via: CDex 1.70beta2
#
DISCID=12111b12
DTITLE=Charlie Landsborough - The very best of Charlie Landsborough
DYEAR=1999
DGENRE=Country
TTITLE0=What Colour is The Wind
TTITLE1=Further Down The Road
TTITLE2=I Will Love You All My Life
TTITLE3=Song of the Ocean
TTITLE4=Things That My Ears Can Do
TTITLE5=The Mountains of Mourne
TTITLE6=A Million Ways to Fall
TTITLE7=Part of Me
TTITLE8=I Dreamed I Was in Heaven
TTITLE9=My Forever Friend
TTITLE10=Come Next Year
TTITLE11=Love Love
TTITLE12=If Only
TTITLE13=Shine Your Light
TTITLE14=Love You Every Second
TTITLE15=One More Time
TTITLE16=You're Still Around
TTITLE17=Heaven Knows
EXTD=YEAR: 1999
EXTT0=
EXTT1=
EXTT2=
EXTT3=
EXTT4=
EXTT5=
EXTT6=
EXTT7=
EXTT8=
EXTT9=
EXTT10=
EXTT11=
EXTT12=
EXTT13=
EXTT14=
EXTT15=
EXTT16=
EXTT17=
PLAYORDER=
